HIERARCHY
ROOT root
{
	OFFSET	0	13.1	24.9
	CHANNELS 6  Xposition Yposition Zposition Xrotation Yrotation Zrotation
	JOINT spine_1
	{
		OFFSET	0	9.99999	0
		CHANNELS 3  Xrotation Yrotation Zrotation
		JOINT spine_2
		{
			OFFSET	0	112	-10
			CHANNELS 3  Xrotation Yrotation Zrotation
			JOINT spine_3
			{
				OFFSET	0	206.5	19.3
				CHANNELS 3  Xrotation Yrotation Zrotation
				JOINT spine_4
				{
					OFFSET	0	110.4	14.6
					CHANNELS 3  Xrotation Yrotation Zrotation
					JOINT neck_1
					{
						OFFSET	0	71.8	-50.3
						CHANNELS 3  Xrotation Yrotation Zrotation
						JOINT neck_2
						{
							OFFSET	0	86.2	-25.8
							CHANNELS 3  Xrotation Yrotation Zrotation
							JOINT head_ee
							{
								OFFSET	0	179.8	-8.7
								CHANNELS 3  Xrotation Yrotation Zrotation
								End Site
								{
									OFFSET	1	0	0
								}
							}
						}
					}
					JOINT left_clavicle
					{
						OFFSET	-43.2	22.4	-70.8
						CHANNELS 3  Xrotation Yrotation Zrotation
						JOINT left_shoulder
						{
							OFFSET	-93.9	-5.79999	48.7
							CHANNELS 3  Xrotation Yrotation Zrotation
							JOINT left_elbow
							{
								OFFSET	-291.4	-30.8	15.2
								CHANNELS 3  Xrotation Yrotation Zrotation
								JOINT left_lowarm_twist
								{
									OFFSET	-110.7	-3.89999	13.6
									CHANNELS 3  Xrotation Yrotation Zrotation
									JOINT left_hand
									{
										OFFSET	-110.7	-3.89999	13.6
										CHANNELS 3  Xrotation Yrotation Zrotation
										JOINT left_ee
										{
											OFFSET	-80.8	-5.10001	12.1
											CHANNELS 3  Xrotation Yrotation Zrotation
											End Site
											{
												OFFSET	1	0	0
											}
										}
									}
								}
							}
						}
					}
					JOINT right_clavicle
					{
						OFFSET	43.2	22.4	-70.8
						CHANNELS 3  Xrotation Yrotation Zrotation
						JOINT right_shoulder
						{
							OFFSET	93.9	-5.79999	48.7
							CHANNELS 3  Xrotation Yrotation Zrotation
							JOINT right_elbow
							{
								OFFSET	291.4	-30.8	15.2
								CHANNELS 3  Xrotation Yrotation Zrotation
								JOINT right_lowarm_twist
								{
									OFFSET	110.7	-3.89999	13.6
									CHANNELS 3  Xrotation Yrotation Zrotation
									JOINT right_hand
									{
										OFFSET	110.7	-3.89999	13.6
										CHANNELS 3  Xrotation Yrotation Zrotation
										JOINT right_ee
										{
											OFFSET	80.8	-5.10001	12.1
											CHANNELS 3  Xrotation Yrotation Zrotation
											End Site
											{
												OFFSET	1	0	0
											}
										}
									}
								}
							}
						}
					}
				}
			}
		}
	}
	JOINT left_hip
	{
		OFFSET	-82.8	-127.5	0.300001
		CHANNELS 3  Xrotation Yrotation Zrotation
		JOINT left_knee
		{
			OFFSET	-28.2	-396.7	2.2
			CHANNELS 3  Xrotation Yrotation Zrotation
			JOINT left_ankle
			{
				OFFSET	-11.7	-411.3	35.4
				CHANNELS 3  Xrotation Yrotation Zrotation
				JOINT left_toes
				{
					OFFSET	0	-60	-88.6
					CHANNELS 3  Xrotation Yrotation Zrotation
					JOINT left_foot_ee
					{
						OFFSET	-22.5	-16.5	-42.2
						CHANNELS 3  Xrotation Yrotation Zrotation
						End Site
						{
							OFFSET	1	0	0
						}
					}
				}
			}
		}
	}
	JOINT right_hip
	{
		OFFSET	82.8	-127.5	0.300001
		CHANNELS 3  Xrotation Yrotation Zrotation
		JOINT right_knee
		{
			OFFSET	28.2	-396.7	2.2
			CHANNELS 3  Xrotation Yrotation Zrotation
			JOINT right_ankle
			{
				OFFSET	11.7	-411.3	35.4
				CHANNELS 3  Xrotation Yrotation Zrotation
				JOINT right_toes
				{
					OFFSET	0	-60	-88.6
					CHANNELS 3  Xrotation Yrotation Zrotation
					JOINT right_foot_ee
					{
						OFFSET	22.5	-16.5	-42.2
						CHANNELS 3  Xrotation Yrotation Zrotation
						End Site
						{
							OFFSET	1	0	0
						}
					}
				}
			}
		}
	}
}
MOTION
Frames: 5
Frame Time: 0.02
832.545773093 620.101 -1823.31658961 -2.78367921397 20.5026287495 7.83739111826 2.14529 -0.307174 -2.54171 2.14887 -0.14487 -2.55609 2.15506 0.300348 -2.54252 2.14605 -0.10483 -2.55804 -15.8638 14.4633 8.99318 -16.1259 22.5663 13.5108 -0.0 0.0 -0.0 11.0046 21.3382 18.8174 -30.7508 -32.5307 40.0089 1.26597 -32.0914 0.364116 26.0172 0.172184 -3.2906 -0.867081 -9.46906 -9.92431 -0.0 0.0 -0.0 8.2702 -16.663 -15.0904 -42.6896 49.3134 -37.4529 0.642038 17.6432 -0.0996414 6.57753 -0.184878 0.819395 2.28576 25.2336 -4.14066 0.0 0.0 0.0 13.0719 1.27888 -8.51088 0.141394 -0.00584793 -0.0209101 -12.0071 29.3395 1.91751 2.57939 -0.0 -0.0 -0.0 0.0 -0.0 35.3609 32.5627 -18.1968 -46.125 0.901675 -6.83349 6.27478 21.1834 1.03504 23.8153 -0.0 -0.0 0.0 0.0 0.0 
819.697302088 620.635 -1834.81397149 -2.73987902196 20.964236057 8.36554777335 2.27751 -0.368716 -2.74043 2.28167 -0.193656 -2.75832 2.29055 0.280825 -2.75082 2.28002 -0.156969 -2.76065 -16.6536 14.4511 10.0347 -16.877 22.1212 14.6295 -0.0 0.0 -0.0 10.7456 21.0074 18.4698 -29.9648 -32.9064 38.2442 1.26067 -31.9834 0.361309 25.9322 0.174066 -3.2799 -0.875987 -9.77151 -10.1155 -0.0 0.0 -0.0 7.81612 -17.6781 -14.2476 -43.3263 48.8689 -37.7342 0.707852 19.3232 -0.120509 6.13025 -0.1753 0.763061 2.23042 25.8145 -3.50054 0.0 0.0 0.0 12.187 0.287451 -9.05012 -0.972851 0.0388337 0.144244 -11.7346 29.2252 1.87203 2.45831 -0.0 -0.0 -0.0 0.0 -0.0 34.5634 32.6611 -17.5321 -37.6399 0.323489 -5.66504 5.54702 19.3216 0.901406 22.8221 -0.0 -0.0 0.0 0.0 0.0 
810.297496869 622.282 -1838.24178265 -2.1367955339 20.8562958571 8.74803949621 2.14634 -0.242598 -2.83545 2.15081 -0.0617544 -2.84513 2.15346 0.432537 -2.81276 2.14243 -0.0169273 -2.84575 -17.0597 14.8361 10.965 -17.2615 22.4386 15.7142 -0.0 0.0 -0.0 10.661 21.7368 18.191 -29.6181 -32.8786 37.0649 1.26767 -32.1261 0.365024 25.0176 0.193293 -3.16465 -0.936433 -8.16 -9.83434 -0.0 0.0 -0.0 8.36767 -15.9772 -15.323 -44.3506 47.6482 -37.3814 0.690495 18.8834 -0.114828 6.42533 -0.181668 0.800217 1.87396 24.9327 -1.61874 0.0 0.0 0.0 11.001 -0.873092 -9.78985 -1.75986 0.0684506 0.261393 -10.7724 29.4626 1.71933 4.24757 -0.0 -0.0 -0.0 0.0 -0.0 31.8489 32.3806 -16.5282 -31.8742 0.03227 -4.82891 6.21163 19.4055 1.00781 21.2879 -0.0 -0.0 0.0 0.0 0.0 
801.816680415 623.196 -1843.29228215 -2.69242454912 23.3417049817 9.17028747561 2.46396 -0.409187 -2.90238 2.46862 -0.223753 -2.92251 2.4793 0.269618 -2.91864 2.46747 -0.194507 -2.9246 -16.5551 14.5511 10.4693 -16.742 22.0473 15.0388 -0.0 0.0 -0.0 10.4865 22.5642 17.7544 -28.3816 -34.8281 37.2567 1.24212 -31.6032 0.351535 25.7488 0.178068 -3.25682 -0.94384 -11.4026 -11.281 -0.0 0.0 -0.0 7.94448 -17.6797 -14.4549 -44.9652 46.9083 -37.1447 0.735208 20.0116 -0.129716 6.0229 -0.172935 0.749552 1.82923 24.6358 -1.4685 0.0 0.0 0.0 10.6469 -3.74778 -9.67172 -2.28121 0.0871821 0.339211 -9.58161 29.425 1.52666 2.79543 -0.0 -0.0 -0.0 0.0 -0.0 28.8092 32.3389 -15.4011 -24.9689 -0.203667 -3.79605 5.68911 16.1953 0.899887 20.7805 -0.0 -0.0 0.0 0.0 0.0 
796.791158039 625.72 -1845.63838879 -2.8877640265 24.3569327455 9.32908325547 2.47599 -0.483267 -2.92638 2.4807 -0.296157 -2.95117 2.49525 0.202133 -2.95909 2.48313 -0.267528 -2.9539 -17.1265 14.5879 11.4217 -17.2637 21.7218 16.0421 -0.0 0.0 -0.0 10.0978 21.2684 17.3931 -28.3449 -35.8542 36.7329 1.2627 -32.0247 0.362381 25.4758 0.18389 -3.22243 -0.80341 -12.063 -10.5993 -0.0 0.0 -0.0 7.97131 -18.6017 -14.4043 -44.4286 45.7244 -37.0656 0.782947 21.1987 -0.146517 7.2211 -0.197886 0.900575 1.77262 28.7819 0.847184 0.0 0.0 0.0 10.2402 -6.46937 -9.60618 -3.14161 0.116542 0.467992 -10.6845 29.3831 1.70423 3.25303 -0.0 -0.0 -0.0 0.0 -0.0 24.4054 30.5995 -13.7108 -14.595 -0.320856 -2.21076 2.43255 14.9576 0.385134 17.9802 -0.0 -0.0 0.0 0.0 0.0 
